<?xml version="1.0" encoding="UTF-8"?>
<svg id="Layer_1" data-name="Layer 1" xmlns="http://www.w3.org/2000/svg" viewBox="0 0 501.15 136.55">
  <defs>
    <style>
      .cls-1 {
        fill: #d1d3d4;
      }

      .cls-1, .cls-2 {
        stroke-width: 0px;
      }

      .cls-2 {
        fill: #f47b30;
      }
    </style>
  </defs>
  <g>
    <path class="cls-1" d="m.12,117.95l-.12-96.57h13.39l31.79,14.93.07,14.94-31.85-14.89.14,81.58H.12Z"/>
    <path class="cls-1" d="m98.31,76.02c1.04-.49,2.86-1.71,5.19-4.54,4.51-5.49,6.8-12.62,6.8-21.44,0-7.73-2.09-14.44-6.28-20.13-4.19-5.68-10.62-8.52-19.29-8.52h-30.41v96.57h13.38V35.83h14.64c5.26,0,8.89,1.42,10.91,4.24,2.01,2.83,3.02,6.23,3.02,10.19,0,4.39-1.36,7.29-3.54,9.93-2.18,2.64-5.06,4.57-9.19,4.57"/>
    <polygon class="cls-1" points="151.17 95.13 157.1 118.13 170.49 118.13 146.01 21.56 130 21.56 105.36 118.13 116.78 118.13 122.6 95.13 125.92 81.2 136.75 38.11 147.58 81.2 151.17 95.13"/>
    <path class="cls-1" d="m263.9,109.19v8.77h-13.38V21.4h13.38v54.19m30.25-44.43v-9.76h13.39v96.57h-13.39"/>
    <path class="cls-1" d="m329.99,75.94v27.03h34.88v15h-48.26V21.4h47.77v14.98h-34.39v25.55"/>
    <path class="cls-1" d="m386.9,117.96h-13.39V21.4h13.39m28.35,0h13.39v96.57h-13.39"/>
    <path class="cls-1" d="m461.07,21.39h40.09v14.94h-23.23l-.06,81.64h-16.84V36.33l.05-14.94Z"/>
  </g>
  <polygon class="cls-2" points="437.74 36.21 461.02 21.4 461.02 36.34 437.74 51.27 437.74 36.21"/>
  <polygon class="cls-2" points="386.9 60.2 415.24 50.29 415.24 63.87 386.9 71.18 386.9 60.2"/>
  <polygon class="cls-2" points="357.61 62.42 329.99 54.03 329.99 68.87 357.61 73.4 357.61 62.42"/>
  <polygon class="cls-2" points="263.91 80.02 294.15 52.93 294.15 63.89 263.9 90.95 263.91 80.02"/>
  <polygon class="cls-2" points="93.7 58.88 67.7 46.58 67.7 57.54 93.7 69.84 93.7 58.88"/>
  <polygon class="cls-2" points="45.24 36.27 13.45 21.29 13.45 32.25 45.24 47.23 45.24 36.27"/>
  <path class="cls-1" d="m181.17,101.25l19.59-81.57h19.97l17.63,81.57h5.44v35.3h-9.3l-1.63-20.3h-46.19l-1.63,20.3h-9.3v-35.3h5.44Zm11.43,0h32.65l-13.94-65.37h-4.02l-14.69,65.37Z"/>
  <polygon class="cls-2" points="227.44 112.21 190.09 112.21 192.6 101.25 225.25 101.25 227.44 112.21"/>
  <polygon class="cls-1" points="67.59 57.49 67.7 61.56 98.31 76.02 93.7 69.84 67.59 57.49"/>
  <polygon class="cls-1" points="123.57 85.5 123.57 89.52 153.82 103.79 153.82 99.78 123.57 85.5"/>
  <polygon class="cls-1" points="263.77 95.14 263.59 91.21 294.79 63.24 294.79 67.23 263.77 95.14"/>
  <polygon class="cls-1" points="437.74 51.27 437.74 47.09 461.19 32.23 461.2 36.26 437.74 51.27"/>
  <polygon class="cls-1" points="329.41 68.66 329.3 64.58 357.61 73.4 357.61 77.4 329.41 68.66"/>
  <polygon class="cls-1" points="386.12 75.46 386.12 71.44 416.02 60.79 416.02 64.78 386.12 75.46"/>
  <circle class="cls-2" cx="40.71" cy="11.37" r="11.37"/>
  <polygon class="cls-1" points="316.6 21.4 329.99 36.38 329.99 102.97 316.6 117.96 316.6 21.4"/>
  <polygon class="cls-2" points="153.82 88.81 123.57 74.54 122.03 84.8 153.82 99.78 153.82 88.81"/>
  <polygon class="cls-1" points="119.88 65.14 128.9 69.37 123.57 89.52 116.95 85.5 119.88 65.14"/>
  <polygon class="cls-1" points="153.15 102.82 148.38 84.31 155.19 84.31 157.3 100.55 153.15 102.82"/>
</svg>